<?xml version="1.0" encoding="iso-8859-1"?>
<!-- Generator: Adobe Illustrator 19.0.0, SVG Export Plug-In . SVG Version: 6.00 Build 0)  -->
<svg version="1.1" id="Capa_1" xmlns="http://www.w3.org/2000/svg" xmlns:xlink="http://www.w3.org/1999/xlink" x="0px" y="0px"
	 viewBox="0 0 489 489" style="enable-background:new 0 0 489 489;" xml:space="preserve">
<g>
	<g>
		<path d="M322.5,40.6c-10.4-3.1-21.8,2.1-26,12.5c-3.1,10.4,2.1,21.8,12.5,26c74.9,27,125.9,98.8,125.9,178.9
			c0,105.1-85.3,190.4-190.4,190.4S54.1,363.1,54.1,258c0-80.1,51-151.9,125.9-178.9c10.4-4.2,16.6-15.6,12.5-26
			c-4.2-10.4-15.6-16.6-26-12.5C74.9,73.9,13.5,161.3,13.5,258c0,126.9,104,231,231,231s231-104,231-231
			C475.5,161.3,414.1,73.9,322.5,40.6z"/>
		<path d="M244.5,234.1c11.4,0,20.8-9.4,20.8-20.8V20.8c0-11.4-9.4-20.8-20.8-20.8s-20.8,9.4-20.8,20.8v192.5
			C223.7,224.7,233.1,234.1,244.5,234.1z"/>
	</g>
</g>
<g>
</g>
<g>
</g>
<g>
</g>
<g>
</g>
<g>
</g>
<g>
</g>
<g>
</g>
<g>
</g>
<g>
</g>
<g>
</g>
<g>
</g>
<g>
</g>
<g>
</g>
<g>
</g>
<g>
</g>
</svg>
